<?xml version="1.0" encoding="iso-8859-1"?>
<!-- Generator: Adobe Illustrator 16.0.0, SVG Export Plug-In . SVG Version: 6.00 Build 0)  -->
<!DOCTYPE svg PUBLIC "-//W3C//DTD SVG 1.1//EN" "http://www.w3.org/Graphics/SVG/1.1/DTD/svg11.dtd">
<svg version="1.1" id="Capa_1" xmlns="http://www.w3.org/2000/svg" xmlns:xlink="http://www.w3.org/1999/xlink" x="0px" y="0px"
	 width="576.556px" height="576.557px" viewBox="0 0 576.556 576.557" style="enable-background:new 0 0 576.556 576.557;"
	 xml:space="preserve">
<style type="text/css">
	.st0{fill:none;stroke:#0061ff;stroke-width:20;stroke-linecap:round;stroke-linejoin:round;stroke-miterlimit:10;}
</style>
<g class="st0">
	<g>
		<g>
			<path d="M25.812,362.18c9.663,6.625,21.026,10.127,32.859,10.127h52.383v141.798c0,32.058,26.082,58.14,58.14,58.14h238.167
				c32.058,0,58.14-26.082,58.14-58.14V372.307h52.384c11.833,0,23.195-3.502,32.858-10.127
				c8.913-6.109,15.942-14.595,20.331-24.536c4.388-9.943,5.919-20.854,4.427-31.557c-1.617-11.604-6.688-22.359-14.662-31.102
				L331.232,23.271c-10.99-12.048-26.646-18.958-42.954-18.958c-16.308,0-31.964,6.91-42.955,18.959L15.717,274.985
				c-7.975,8.742-13.045,19.497-14.662,31.102c-1.492,10.702,0.039,21.614,4.427,31.556C9.87,347.585,16.9,356.07,25.812,362.18z
				 M47.368,303.855L276.975,52.142c3.034-3.326,7.169-4.989,11.304-4.989c4.134,0,8.269,1.663,11.303,4.989l229.607,251.714
				c8.959,9.822,1.99,25.611-11.304,25.611h-79.924c-8.45,0-15.3,6.851-15.3,15.3v169.338c0,8.449-6.851,15.3-15.3,15.3H169.195
				c-8.45,0-15.3-6.851-15.3-15.3V344.767c0-8.449-6.85-15.3-15.3-15.3H58.671C45.376,329.467,38.408,313.679,47.368,303.855z"/>
<!--			<path d="M407.362,572.744H169.195c-32.334,0-58.64-26.306-58.64-58.64V372.807H58.671c-11.935,0-23.395-3.532-33.142-10.215-->
<!--				c-8.989-6.161-16.08-14.719-20.506-24.747c-4.426-10.027-5.969-21.033-4.464-31.827c1.631-11.704,6.745-22.552,14.788-31.369-->
<!--				L244.954,22.935c11.085-12.152,26.876-19.122,43.324-19.122c16.448,0,32.238,6.97,43.323,19.122l229.607,251.714-->
<!--				c8.043,8.817,13.157,19.665,14.788,31.369c1.505,10.793-0.039,21.799-4.465,31.828c-4.427,10.028-11.518,18.586-20.506,24.746-->
<!--				c-9.746,6.683-21.206,10.215-33.141,10.215h-51.884v141.298C466.001,546.438,439.696,572.744,407.362,572.744z M288.278,4.812-->
<!--				c-16.168,0-31.689,6.851-42.585,18.796L16.086,275.322C8.18,283.99,3.153,294.652,1.55,306.156-->
<!--				c-1.479,10.609,0.039,21.427,4.389,31.284c4.351,9.858,11.321,18.271,20.156,24.327c9.58,6.567,20.844,10.039,32.576,10.039-->
<!--				h52.883v142.298c0,31.782,25.857,57.64,57.64,57.64h238.167c31.782,0,57.64-25.857,57.64-57.64V371.807h52.884-->
<!--				c11.731,0,22.996-3.472,32.575-10.039c8.835-6.056,15.805-14.468,20.157-24.326c4.35-9.858,5.867-20.677,4.389-31.285-->
<!--				c-1.604-11.504-6.63-22.167-14.536-30.834L330.863,23.608C319.966,11.663,304.446,4.812,288.278,4.812z M407.362,529.904H169.195-->
<!--				c-8.712,0-15.8-7.088-15.8-15.8V344.767c0-8.16-6.639-14.8-14.8-14.8H58.671c-6.352,0-11.89-3.609-14.455-9.42-->
<!--				c-2.564-5.811-1.499-12.335,2.782-17.028L276.605,51.805c2.987-3.274,7.241-5.152,11.673-5.152c4.431,0,8.686,1.878,11.672,5.152-->
<!--				l229.607,251.714c4.28,4.692,5.346,11.218,2.781,17.028s-8.104,9.42-14.454,9.42h-79.924c-8.161,0-14.8,6.64-14.8,14.8v169.338-->
<!--				C423.162,522.816,416.074,529.904,407.362,529.904z M288.278,47.652c-4.151,0-8.137,1.759-10.934,4.826L47.737,304.192-->
<!--				c-4.01,4.396-5.008,10.508-2.606,15.951c2.402,5.442,7.59,8.823,13.54,8.823h79.923c8.712,0,15.8,7.088,15.8,15.8v169.338-->
<!--				c0,8.16,6.639,14.8,14.8,14.8h238.167c8.161,0,14.8-6.64,14.8-14.8V344.767c0-8.712,7.088-15.8,15.8-15.8h79.924-->
<!--				c5.949,0,11.137-3.381,13.539-8.824c2.402-5.442,1.404-11.555-2.604-15.95L299.212,52.479-->
<!--				C296.415,49.412,292.429,47.652,288.278,47.652z"/>-->
		</g>
	</g>
</g>
<g>
</g>
<g>
</g>
<g>
</g>
<g>
</g>
<g>
</g>
<g>
</g>
<g>
</g>
<g>
</g>
<g>
</g>
<g>
</g>
<g>
</g>
<g>
</g>
<g>
</g>
<g>
</g>
<g>
</g>
</svg>
