<?xml version="1.0" encoding="utf-8"?>
<svg version="1.1" id="Icons" xmlns="http://www.w3.org/2000/svg" xmlns:xlink="http://www.w3.org/1999/xlink" x="0px" y="0px"
	 width="72px" height="72px" viewBox="0 0 72 72" style="enable-background:new 0 0 72 72;" xml:space="preserve">
	<defs>
		<g id="arrow" class="arrow">
			<path
					d="M36.79267830,2.00000000 C34.69435123,2.00000000 33.25148146,3.14680226 33.09361509,3.27963258 L4.15944577,27.90867294 C3.39362596,28.40957508 1.41861699,29.91904130 2.16572315,31.23889477 C2.60717317,32.02269508 3.76453994,32.42186203 5.60039619,32.42186203 L20.51660826,32.42186203 L20.51660826,67.19602960 C20.44271336,67.52388053 20.38417325,68.27388177 21.12456170,68.94884909 C21.88702265,69.64544781 23.19169937,70.00000000 25.00020491,70.00000000 L47.92729520,70.00000000 C49.55010384,70.00000000 50.48770528,69.56703398 50.98769540,69.20403203 C51.92721619,68.52298088 51.94257097,67.69794571 51.93585326,67.54078006 L51.93585326,33.15259781 L65.60688839,33.15259781 C66.44996194,33.15259781 69.02092843,33.15259781 69.80546188,31.81347887 C70.62454359,30.41521157 68.63753869,28.87160829 68.01087161,28.43255844 C67.13324979,27.59670757 43.43314214,5.45088449 39.98503367,3.01836582 C38.79167912,2.17778308 37.59112702,2.00000000 36.79267830,2.00000000z M4.85329003,30.43346306 C5.06297878,30.12014573 5.61575097,29.61079383 6.17716023,29.23359627 L35.21449450,4.53087395 C35.40163092,4.37844017 36.09355583,3.94919205 36.79267830,3.94919205 C37.19958005,3.94919205 37.60168343,4.09554200 38.02921817,4.39432573 C41.34345213,6.73254502 65.68414214,29.47694954 65.93317753,29.70914911 C66.64237657,30.22458484 67.20762452,30.84141777 67.23161637,31.08443305 C67.16108033,31.07834921 66.76089630,31.20779963 65.60688839,31.20779963 L49.17247214,31.20779963 L49.17247214,67.56984726 C49.15183915,67.89026239 48.73294148,68.05114594 47.92729520,68.05114594 L25.00020491,68.05114594 C24.00934157,68.05114594 23.48392008,67.90479599 23.32077551,67.76554384 C23.20417513,67.66516062 23.24352176,67.50664301 23.24352176,67.50664301 L23.27950953,67.28525913 L23.27950953,30.47537390 L5.60039619,30.47537390 C5.25155471,30.47571189 5.01307574,30.45408049 4.85329003,30.43346306z "
					fill="#0061ff"
			/>
		</g>
	</defs>

	<style type="text/css">
		.arrow { fill:none; stroke-linecap:round; stroke-linejoin:round; stroke-miterlimit:10; }
	</style>
	<use xlink:href="#arrow" stroke="#555555" stroke-width="4"/>
	<use xlink:href="#arrow" stroke="#0061ff" stroke-width="2"/>
</svg>
