<?xml version="1.0" encoding="utf-8"?>
<svg xmlns="http://www.w3.org/2000/svg" width="512px" height="512px" viewBox="0 0 512 512">
    <style type="text/css">
        .minimap-arrow { opacity:0.8; fill:#FFFFFF; stroke:#555555; stroke-width:2; stroke-linecap:round; stroke-linejoin:round; stroke-miterlimit:10; }
    </style>
    <path class="minimap-arrow" d="M8 256C8 119 119 8 256 8s248 111 248 248-111 248-248 248S8 393 8 256zm292 116V256h70.9c10.7 0 16.1-13 8.5-20.5L264.5 121.2c-4.7-4.7-12.2-4.7-16.9 0l-115 114.3c-7.6 7.6-2.2 20.5 8.5 20.5H212v116c0 6.6 5.4 12 12 12h64c6.6 0 12-5.4 12-12z"/>
</svg>
