<?xml version="1.0" encoding="iso-8859-1"?>
<!-- Generator: Adobe Illustrator 19.0.0, SVG Export Plug-In . SVG Version: 6.00 Build 0)  -->
<svg version="1.1" id="Capa_1" xmlns="http://www.w3.org/2000/svg" xmlns:xlink="http://www.w3.org/1999/xlink" x="0px" y="0px"
	 width="512px" height="512px" viewBox="0 0 512.005 512.005" style="enable-background:new 0 0 512.005 512.005;" xml:space="preserve">
<style type="text/css">
	.st0{opacity:0.5;fill:#0061ff;stroke:#0061ff;stroke-width:10;stroke-linecap:round;stroke-linejoin:round;stroke-miterlimit:10;}
</style>
<g class="st0">
	<g>
		<path d="M466.211,205.787L263.544,3.12c-4.16-4.16-10.923-4.16-15.083,0L45.795,205.787c-21.803,21.803-21.803,57.28,0,79.083
			s57.28,21.803,79.083,0l77.781-77.781v251.584c0,29.397,23.936,53.333,53.333,53.333s53.333-23.936,53.333-53.333V207.088
			l77.803,77.781c21.803,21.803,57.28,21.803,79.083,0S488.013,227.589,466.211,205.787z M451.128,269.787
			c-13.056,13.056-35.861,13.056-48.917,0l-96-96c-3.051-3.029-7.637-3.947-11.627-2.304c-3.989,1.643-6.592,5.547-6.592,9.856
			v277.333c0,17.643-14.357,32-32,32s-32-14.357-32-32V181.339c0-4.309-2.603-8.213-6.592-9.856
			c-1.323-0.555-2.709-0.811-4.075-0.811c-2.773,0-5.504,1.088-7.531,3.115l-96,96c-13.056,13.056-35.861,13.056-48.917,0
			c-13.483-13.483-13.483-35.435,0-48.917L255.992,25.755l195.136,195.115C464.611,234.352,464.611,256.304,451.128,269.787z"/>
	</g>
</g>
<g>
</g>
<g>
</g>
<g>
</g>
<g>
</g>
<g>
</g>
<g>
</g>
<g>
</g>
<g>
</g>
<g>
</g>
<g>
</g>
<g>
</g>
<g>
</g>
<g>
</g>
<g>
</g>
<g>
</g>
</svg>
